{
    "asset" : {
        "generator" : "Khronos glTF Blender I/O v3.3.32",
        "version" : "2.0"
    },
    "extensionsUsed" : [
        "KHR_materials_clearcoat",
        "KHR_materials_specular",
        "KHR_materials_ior"
    ],
    "scene" : 0,
    "scenes" : [
        {
            "name" : "Scene",
            "nodes" : [
                11
            ]
        }
    ],
    "nodes" : [
        {
            "name" : "Bone.001",
            "translation" : [
                -1.1920928955078125e-07,
                0.5,
                0
            ]
        },
        {
            "name" : "Bone.002",
            "rotation" : [
                0.0533110573887825,
                -1.190397682648836e-07,
                -6.355173276517689e-09,
                0.9985779523849487
            ],
            "translation" : [
                -1.1920928955078125e-07,
                0.41455671191215515,
                -0.3616611659526825
            ]
        },
        {
            "name" : "Bone.003",
            "rotation" : [
                -0.025691328570246696,
                -1.1916992548322014e-07,
                3.0626441382963776e-09,
                0.9996699094772339
            ],
            "scale" : [
                1,
                0.9999998807907104,
                1
            ],
            "translation" : [
                -1.1920928955078125e-07,
                0.2208825647830963,
                0.39020416140556335
            ]
        },
        {
            "children" : [
                0,
                1,
                2
            ],
            "name" : "Bone",
            "translation" : [
                -1.1920928955078125e-07,
                2.9802322387695312e-08,
                0
            ]
        },
        {
            "name" : "lowl.l",
            "rotation" : [
                1.8457213203629708e-16,
                9.30634236340211e-09,
                -8.059410083749441e-11,
                1
            ],
            "scale" : [
                1.0000001192092896,
                1,
                1.0000001192092896
            ],
            "translation" : [
                4.218847493575595e-15,
                0.17728286981582642,
                1.1920928955078125e-07
            ]
        },
        {
            "children" : [
                4
            ],
            "name" : "upl.l",
            "rotation" : [
                -0.5326789617538452,
                0.46503013372421265,
                0.5326790809631348,
                0.46503016352653503
            ],
            "scale" : [
                1,
                0.9999999403953552,
                1
            ],
            "translation" : [
                -0.047090426087379456,
                0.15363994240760803,
                5.748158571350359e-08
            ]
        },
        {
            "children" : [
                5
            ],
            "name" : "gro.l",
            "rotation" : [
                -9.89029658171603e-09,
                -7.66498331472576e-08,
                0.657651960849762,
                0.7533219456672668
            ],
            "scale" : [
                1,
                1.0000001192092896,
                1
            ],
            "translation" : [
                -0.07834362983703613,
                -0.016962707042694092,
                4.457141500324724e-08
            ]
        },
        {
            "name" : "lowl.r",
            "rotation" : [
                1.8457213203629708e-16,
                -9.30634236340211e-09,
                8.059410083749441e-11,
                1
            ],
            "scale" : [
                1.0000001192092896,
                1,
                1.0000001192092896
            ],
            "translation" : [
                -4.218847493575595e-15,
                0.1772828996181488,
                1.3322676295501878e-15
            ]
        },
        {
            "children" : [
                7
            ],
            "name" : "upl.r",
            "rotation" : [
                -0.5326789617538452,
                -0.46503013372421265,
                -0.5326790809631348,
                0.46503016352653503
            ],
            "scale" : [
                1,
                0.9999999403953552,
                1
            ],
            "translation" : [
                0.04709046334028244,
                0.15363982319831848,
                5.748156439722152e-08
            ]
        },
        {
            "children" : [
                8
            ],
            "name" : "gro.r",
            "rotation" : [
                -9.89029658171603e-09,
                7.66498331472576e-08,
                -0.657651960849762,
                0.7533219456672668
            ],
            "scale" : [
                1,
                1.0000001192092896,
                1
            ],
            "translation" : [
                0.0783434510231018,
                -0.016962707042694092,
                4.457141500324724e-08
            ]
        },
        {
            "mesh" : 0,
            "name" : "Among Us (Red).002",
            "skin" : 0
        },
        {
            "children" : [
                10,
                3,
                6,
                9
            ],
            "name" : "Armature.002",
            "scale" : [
                2.604038715362549,
                2.604038715362549,
                2.604038715362549
            ],
            "translation" : [
                -2.6889123916625977,
                1.276548147201538,
                0
            ]
        }
    ],
    "materials" : [
        {
            "doubleSided" : true,
            "name" : "Head Shield",
            "pbrMetallicRoughness" : {}
        },
        {
            "doubleSided" : true,
            "name" : "Body Color",
            "pbrMetallicRoughness" : {
                "baseColorFactor" : [
                    0.8000000715255737,
                    0,
                    0.0020140858832746744,
                    1
                ],
                "metallicFactor" : 0,
                "metallicRoughnessTexture" : {
                    "index" : 0
                }
            }
        },
        {
            "doubleSided" : true,
            "extensions" : {
                "KHR_materials_clearcoat" : {
                    "clearcoatFactor" : 1,
                    "clearcoatRoughnessFactor" : 0.029999999329447746
                },
                "KHR_materials_specular" : {
                    "specularColorFactor" : [
                        0.21931737693542577,
                        0.21931737693542577,
                        0.21931737693542577
                    ]
                },
                "KHR_materials_ior" : {
                    "ior" : 4.050000190734863
                }
            },
            "name" : "Head Shield (Rim)",
            "pbrMetallicRoughness" : {
                "baseColorFactor" : [
                    0.1498429775238037,
                    0.1498429775238037,
                    0.1498429775238037,
                    1
                ],
                "roughnessFactor" : 0.12272727489471436
            }
        },
        {
            "doubleSided" : true,
            "extensions" : {
                "KHR_materials_specular" : {
                    "specularColorFactor" : [
                        2.371357614441398,
                        2.371357614441398,
                        2.371357614441398
                    ]
                },
                "KHR_materials_ior" : {
                    "ior" : 1.4500000476837158
                }
            },
            "name" : "BackPack",
            "pbrMetallicRoughness" : {
                "baseColorFactor" : [
                    1,
                    0.0012115428689867258,
                    0,
                    1
                ],
                "metallicFactor" : 0,
                "metallicRoughnessTexture" : {
                    "index" : 1
                }
            }
        }
    ],
    "meshes" : [
        {
            "name" : "Cube.004",
            "primitives" : [
                {
                    "attributes" : {
                        "POSITION" : 0,
                        "NORMAL" : 1,
                        "TEXCOORD_0" : 2,
                        "JOINTS_0" : 3,
                        "WEIGHTS_0" : 4
                    },
                    "indices" : 5,
                    "material" : 0
                },
                {
                    "attributes" : {
                        "POSITION" : 6,
                        "NORMAL" : 7,
                        "TEXCOORD_0" : 8,
                        "JOINTS_0" : 9,
                        "WEIGHTS_0" : 10
                    },
                    "indices" : 11,
                    "material" : 1
                },
                {
                    "attributes" : {
                        "POSITION" : 12,
                        "NORMAL" : 13,
                        "TEXCOORD_0" : 14,
                        "JOINTS_0" : 15,
                        "WEIGHTS_0" : 16
                    },
                    "indices" : 17,
                    "material" : 2
                },
                {
                    "attributes" : {
                        "POSITION" : 18,
                        "NORMAL" : 19,
                        "TEXCOORD_0" : 20,
                        "JOINTS_0" : 21,
                        "WEIGHTS_0" : 22
                    },
                    "indices" : 23,
                    "material" : 3
                }
            ]
        }
    ],
    "textures" : [
        {
            "sampler" : 0,
            "source" : 0
        },
        {
            "sampler" : 0,
            "source" : 0
        }
    ],
    "images" : [
        {
            "bufferView" : 12,
            "mimeType" : "image/png",
            "name" : "Image"
        }
    ],
    "skins" : [
        {
            "inverseBindMatrices" : 24,
            "joints" : [
                3,
                0,
                1,
                2,
                6,
                5,
                4,
                9,
                8,
                7
            ],
            "name" : "Armature.002"
        }
    ],
    "accessors" : [
        {
            "bufferView" : 0,
            "componentType" : 5126,
            "count" : 77,
            "max" : [
                -1.772929072380066,
                3.298323631286621,
                -0.6338785886764526
            ],
            "min" : [
                -3.556417465209961,
                2.1960670948028564,
                -1.2229629755020142
            ],
            "type" : "VEC3"
        },
        {
            "bufferView" : 1,
            "componentType" : 5126,
            "count" : 77,
            "type" : "VEC3"
        },
        {
            "bufferView" : 2,
            "componentType" : 5126,
            "count" : 77,
            "type" : "VEC2"
        },
        {
            "bufferView" : 3,
            "componentType" : 5121,
            "count" : 77,
            "type" : "VEC4"
        },
        {
            "bufferView" : 4,
            "componentType" : 5126,
            "count" : 77,
            "type" : "VEC4"
        },
        {
            "bufferView" : 5,
            "componentType" : 5123,
            "count" : 342,
            "type" : "SCALAR"
        },
        {
            "bufferView" : 6,
            "componentType" : 5126,
            "count" : 399,
            "max" : [
                -1.5475817918777466,
                4.053836345672607,
                1.036287784576416
            ],
            "min" : [
                -3.865590810775757,
                -0.021014871075749397,
                -1.1073228120803833
            ],
            "type" : "VEC3"
        },
        {
            "bufferView" : 7,
            "componentType" : 5126,
            "count" : 399,
            "type" : "VEC3"
        },
        {
            "bufferView" : 8,
            "componentType" : 5126,
            "count" : 399,
            "type" : "VEC2"
        },
        {
            "bufferView" : 9,
            "componentType" : 5121,
            "count" : 399,
            "type" : "VEC4"
        },
        {
            "bufferView" : 10,
            "componentType" : 5126,
            "count" : 399,
            "type" : "VEC4"
        },
        {
            "bufferView" : 11,
            "componentType" : 5123,
            "count" : 1590,
            "type" : "SCALAR"
        },
        {
            "bufferView" : 13,
            "componentType" : 5126,
            "count" : 58,
            "max" : [
                -1.772929072380066,
                3.298323631286621,
                -0.6187008023262024
            ],
            "min" : [
                -3.556417465209961,
                2.1960670948028564,
                -1.109957218170166
            ],
            "type" : "VEC3"
        },
        {
            "bufferView" : 14,
            "componentType" : 5126,
            "count" : 58,
            "type" : "VEC3"
        },
        {
            "bufferView" : 15,
            "componentType" : 5126,
            "count" : 58,
            "type" : "VEC2"
        },
        {
            "bufferView" : 16,
            "componentType" : 5121,
            "count" : 58,
            "type" : "VEC4"
        },
        {
            "bufferView" : 17,
            "componentType" : 5126,
            "count" : 58,
            "type" : "VEC4"
        },
        {
            "bufferView" : 18,
            "componentType" : 5123,
            "count" : 126,
            "type" : "SCALAR"
        },
        {
            "bufferView" : 19,
            "componentType" : 5126,
            "count" : 74,
            "max" : [
                -1.9845173358917236,
                3.3691961765289307,
                1.3825640678405762
            ],
            "min" : [
                -3.4838075637817383,
                1.5929454565048218,
                0.7209631204605103
            ],
            "type" : "VEC3"
        },
        {
            "bufferView" : 20,
            "componentType" : 5126,
            "count" : 74,
            "type" : "VEC3"
        },
        {
            "bufferView" : 21,
            "componentType" : 5126,
            "count" : 74,
            "type" : "VEC2"
        },
        {
            "bufferView" : 22,
            "componentType" : 5121,
            "count" : 74,
            "type" : "VEC4"
        },
        {
            "bufferView" : 23,
            "componentType" : 5126,
            "count" : 74,
            "type" : "VEC4"
        },
        {
            "bufferView" : 24,
            "componentType" : 5123,
            "count" : 228,
            "type" : "SCALAR"
        },
        {
            "bufferView" : 25,
            "componentType" : 5126,
            "count" : 10,
            "type" : "MAT4"
        }
    ],
    "bufferViews" : [
        {
            "buffer" : 0,
            "byteLength" : 924,
            "byteOffset" : 0,
            "target" : 34962
        },
        {
            "buffer" : 0,
            "byteLength" : 924,
            "byteOffset" : 924,
            "target" : 34962
        },
        {
            "buffer" : 0,
            "byteLength" : 616,
            "byteOffset" : 1848,
            "target" : 34962
        },
        {
            "buffer" : 0,
            "byteLength" : 308,
            "byteOffset" : 2464,
            "target" : 34962
        },
        {
            "buffer" : 0,
            "byteLength" : 1232,
            "byteOffset" : 2772,
            "target" : 34962
        },
        {
            "buffer" : 0,
            "byteLength" : 684,
            "byteOffset" : 4004,
            "target" : 34963
        },
        {
            "buffer" : 0,
            "byteLength" : 4788,
            "byteOffset" : 4688,
            "target" : 34962
        },
        {
            "buffer" : 0,
            "byteLength" : 4788,
            "byteOffset" : 9476,
            "target" : 34962
        },
        {
            "buffer" : 0,
            "byteLength" : 3192,
            "byteOffset" : 14264,
            "target" : 34962
        },
        {
            "buffer" : 0,
            "byteLength" : 1596,
            "byteOffset" : 17456,
            "target" : 34962
        },
        {
            "buffer" : 0,
            "byteLength" : 6384,
            "byteOffset" : 19052,
            "target" : 34962
        },
        {
            "buffer" : 0,
            "byteLength" : 3180,
            "byteOffset" : 25436,
            "target" : 34963
        },
        {
            "buffer" : 0,
            "byteLength" : 90,
            "byteOffset" : 28616
        },
        {
            "buffer" : 0,
            "byteLength" : 696,
            "byteOffset" : 28708,
            "target" : 34962
        },
        {
            "buffer" : 0,
            "byteLength" : 696,
            "byteOffset" : 29404,
            "target" : 34962
        },
        {
            "buffer" : 0,
            "byteLength" : 464,
            "byteOffset" : 30100,
            "target" : 34962
        },
        {
            "buffer" : 0,
            "byteLength" : 232,
            "byteOffset" : 30564,
            "target" : 34962
        },
        {
            "buffer" : 0,
            "byteLength" : 928,
            "byteOffset" : 30796,
            "target" : 34962
        },
        {
            "buffer" : 0,
            "byteLength" : 252,
            "byteOffset" : 31724,
            "target" : 34963
        },
        {
            "buffer" : 0,
            "byteLength" : 888,
            "byteOffset" : 31976,
            "target" : 34962
        },
        {
            "buffer" : 0,
            "byteLength" : 888,
            "byteOffset" : 32864,
            "target" : 34962
        },
        {
            "buffer" : 0,
            "byteLength" : 592,
            "byteOffset" : 33752,
            "target" : 34962
        },
        {
            "buffer" : 0,
            "byteLength" : 296,
            "byteOffset" : 34344,
            "target" : 34962
        },
        {
            "buffer" : 0,
            "byteLength" : 1184,
            "byteOffset" : 34640,
            "target" : 34962
        },
        {
            "buffer" : 0,
            "byteLength" : 456,
            "byteOffset" : 35824,
            "target" : 34963
        },
        {
            "buffer" : 0,
            "byteLength" : 640,
            "byteOffset" : 36280
        }
    ],
    "samplers" : [
        {
            "magFilter" : 9729,
            "minFilter" : 9987
        }
    ],
    "buffers" : [
        {
            "byteLength" : 36920,
            "uri" : "data:application/octet-stream;base64,"
        }
    ]
}
